<?xml version="1.0" encoding="utf-8"?>
<!-- Generator: Adobe Illustrator 16.0.0, SVG Export Plug-In . SVG Version: 6.00 Build 0)  -->
<!DOCTYPE svg PUBLIC "-//W3C//DTD SVG 1.0//EN" "http://www.w3.org/TR/2001/REC-SVG-20010904/DTD/svg10.dtd">
<svg version="1.0" id="Layer_1" xmlns="http://www.w3.org/2000/svg" xmlns:xlink="http://www.w3.org/1999/xlink" x="0px" y="0px"
	 width="100px" height="100px" viewBox="0 0 100 100" enable-background="new 0 0 100 100" xml:space="preserve">
<path d="M90,16.392L65.41,30.587c-0.801-0.969-1.692-1.86-2.662-2.663L73.096,10h-7.698l-8.432,14.606
	c-1.165-0.435-2.376-0.762-3.633-0.973V10h-6.666v13.633c-1.257,0.211-2.468,0.538-3.631,0.971L34.604,10h-7.698l10.346,17.924
	c-0.968,0.802-1.859,1.694-2.663,2.662L10,16.388v7.698l21.271,12.283C30.838,37.532,30.511,38.745,30.3,40H10v6.667h20.3
	c0.309,1.836,0.934,3.555,1.707,5.189c-2.646,3.219-4.454,7.154-5.074,11.478h-3.599C15.97,63.333,10,69.304,10,76.667
	C10,84.029,15.97,90,23.333,90h53.333C84.03,90,90,84.029,90,76.667c0-7.363-5.97-13.334-13.333-13.334h-3.601
	c-0.618-4.323-2.429-8.259-5.074-11.478c0.774-1.634,1.399-3.35,1.709-5.189H90V40H69.701c-0.212-1.255-0.541-2.466-0.971-3.63
	L90,24.09V16.392z M50,30c7.359,0,13.334,5.969,13.334,13.333c0,1.331-0.254,2.59-0.619,3.802C59.056,44.742,54.7,43.333,50,43.333
	s-9.059,1.409-12.716,3.802c-0.363-1.212-0.617-2.471-0.617-3.802C36.667,35.969,42.635,30,50,30z M76.667,69.999
	c3.682,0,6.667,2.986,6.667,6.668c0,3.683-2.985,6.667-6.667,6.667H23.333c-3.682,0-6.667-2.984-6.667-6.667
	c0-3.682,2.985-6.668,6.667-6.668h10v-3.332C33.333,57.463,40.796,50,50,50c9.202,0,16.667,7.463,16.667,16.667v3.332H76.667z"/>
</svg>
