<?xml version="1.0" encoding="utf-8"?>
<!-- Generator: Adobe Illustrator 16.0.0, SVG Export Plug-In . SVG Version: 6.00 Build 0)  -->
<!DOCTYPE svg PUBLIC "-//W3C//DTD SVG 1.0//EN" "http://www.w3.org/TR/2001/REC-SVG-20010904/DTD/svg10.dtd">
<svg version="1.0" id="Layer_1" xmlns="http://www.w3.org/2000/svg" xmlns:xlink="http://www.w3.org/1999/xlink" x="0px" y="0px"
	 width="100px" height="100px" viewBox="0 0 100 100" enable-background="new 0 0 100 100" xml:space="preserve">
<polygon points="60,46.667 47.78,46.667 40,70 50,70 43.333,90 63.333,63.333 53.333,63.333 "/>
<path d="M73.333,36.667c-3.262-7.829-10.982-13.333-20-13.333c-2.467,0-4.856,0.352-7.122,0.979l0,0
	C44.375,16.126,37.077,10,28.333,10C18.209,10,10,18.209,10,28.333c0,6.722,3.633,12.584,9.027,15.774
	C13.789,45.908,10,50.82,10,56.667C10,64.03,15.97,70,23.333,70h10v-6.667h-10c-3.679,0-6.667-2.991-6.667-6.666
	c0-3.676,2.988-6.667,6.667-6.667h10c0-11.045,8.958-20,20-20c7.702,0,13.991,5.853,14.831,13.333h5.169c5.515,0,10,4.485,10,10
	c0,5.515-4.485,10-10,10H70V70h3.333C82.539,70,90,62.539,90,53.333C90,44.127,82.539,36.667,73.333,36.667z M28.678,39.967
	C28.561,39.971,28.451,40,28.333,40c-6.439,0-11.667-5.225-11.667-11.667c0-6.442,5.228-11.667,11.667-11.667
	c5.989,0,10.872,4.535,11.536,10.345h0.003C34.857,29.964,30.898,34.515,28.678,39.967z"/>
<polygon points="14.447,76.667 10,90 17.028,90 21.475,76.667 "/>
<polygon points="29.639,76.667 25.195,90 32.223,90 36.667,76.667 "/>
<polygon points="64.446,76.667 60,90 67.031,90 71.472,76.667 "/>
<polygon points="79.642,76.667 75.195,90 82.22,90 86.667,76.667 "/>
</svg>
